{
  "accessors": [
    {
      "bufferView": 2,
      "componentType": 5126,
      "count": 1243,
      "max": [
        2.515187978744507,
        1.3608839511871338,
        2.278573989868164
      ],
      "min": [
        -2.8674399852752686,
        -1.3608839511871338,
        0.001246000058017671
      ],
      "type": "VEC3"
    },
    {
      "bufferView": 2,
      "byteOffset": 14916,
      "componentType": 5126,
      "count": 1243,
      "max": [
        1.0,
        1.0,
        1.0
      ],
      "min": [
        -1.0,
        -1.0,
        -1.0
      ],
      "type": "VEC3"
    },
    {
      "bufferView": 1,
      "componentType": 5126,
      "count": 1243,
      "max": [
        0.875,
        1.0
      ],
      "min": [
        0.125,
        0.0
      ],
      "type": "VEC2"
    },
    {
      "bufferView": 0,
      "componentType": 5125,
      "count": 1941,
      "type": "SCALAR"
    },
    {
      "bufferView": 2,
      "byteOffset": 29832,
      "componentType": 5126,
      "count": 9391,
      "max": [
        2.550071954727173,
        1.5682300329208374,
        2.695884943008423
      ],
      "min": [
        -3.17037296295166,
        -1.5682250261306763,
        -0.40793898701667786
      ],
      "type": "VEC3"
    },
    {
      "bufferView": 2,
      "byteOffset": 142524,
      "componentType": 5126,
      "count": 9391,
      "max": [
        1.0,
        1.0,
        1.0
      ],
      "min": [
        -1.0,
        -1.0,
        -1.0
      ],
      "type": "VEC3"
    },
    {
      "bufferView": 1,
      "byteOffset": 9944,
      "componentType": 5126,
      "count": 9391,
      "max": [
        1.0,
        1.0
      ],
      "min": [
        0.0,
        0.009999999776482582
      ],
      "type": "VEC2"
    },
    {
      "bufferView": 0,
      "byteOffset": 7764,
      "componentType": 5125,
      "count": 15480,
      "type": "SCALAR"
    },
    {
      "bufferView": 2,
      "byteOffset": 255216,
      "componentType": 5126,
      "count": 99,
      "max": [
        0.2592940032482147,
        1.0,
        2.57143497467041
      ],
      "min": [
        -2.8504490852355957,
        -1.0,
        0.75
      ],
      "type": "VEC3"
    },
    {
      "bufferView": 2,
      "byteOffset": 256404,
      "componentType": 5126,
      "count": 99,
      "max": [
        1.0,
        1.0,
        1.0
      ],
      "min": [
        -1.0,
        -1.0,
        -1.0
      ],
      "type": "VEC3"
    },
    {
      "bufferView": 1,
      "byteOffset": 85072,
      "componentType": 5126,
      "count": 99,
      "max": [
        0.875,
        1.0
      ],
      "min": [
        0.125,
        0.0
      ],
      "type": "VEC2"
    },
    {
      "bufferView": 0,
      "byteOffset": 69684,
      "componentType": 5125,
      "count": 192,
      "type": "SCALAR"
    },
    {
      "bufferView": 2,
      "byteOffset": 257592,
      "componentType": 5126,
      "count": 296,
      "max": [
        0.23817700147628784,
        1.0199999809265137,
        2.5640769004821777
      ],
      "min": [
        -2.95291805267334,
        -1.0199999809265137,
        1.0338890552520752
      ],
      "type": "VEC3"
    },
    {
      "bufferView": 2,
      "byteOffset": 261144,
      "componentType": 5126,
      "count": 296,
      "max": [
        1.0,
        1.0,
        1.0
      ],
      "min": [
        -1.0,
        -1.0,
        -1.0
      ],
      "type": "VEC3"
    },
    {
      "bufferView": 1,
      "byteOffset": 85864,
      "componentType": 5126,
      "count": 296,
      "max": [
        0.875,
        1.0
      ],
      "min": [
        0.125,
        0.0
      ],
      "type": "VEC2"
    },
    {
      "bufferView": 0,
      "byteOffset": 70452,
      "componentType": 5125,
      "count": 474,
      "type": "SCALAR"
    },
    {
      "bufferView": 2,
      "byteOffset": 264696,
      "componentType": 5126,
      "count": 60,
      "max": [
        -0.9101409912109375,
        1.0389649868011475,
        1.2445119619369507
      ],
      "min": [
        -1.4025570154190063,
        -1.0389649868011475,
        1.2174439430236816
      ],
      "type": "VEC3"
    },
    {
      "bufferView": 2,
      "byteOffset": 265416,
      "componentType": 5126,
      "count": 60,
      "max": [
        1.0,
        1.0,
        1.0
      ],
      "min": [
        -1.0,
        -1.0,
        -1.0
      ],
      "type": "VEC3"
    },
    {
      "bufferView": 1,
      "byteOffset": 88232,
      "componentType": 5126,
      "count": 60,
      "max": [
        0.875,
        0.75
      ],
      "min": [
        0.125,
        0.0
      ],
      "type": "VEC2"
    },
    {
      "bufferView": 0,
      "byteOffset": 72348,
      "componentType": 5125,
      "count": 90,
      "type": "SCALAR"
    },
    {
      "bufferView": 2,
      "byteOffset": 266136,
      "componentType": 5126,
      "count": 12,
      "max": [
        0.8863009810447693,
        0.944724977016449,
        1.9156889915466309
      ],
      "min": [
        -0.37568899989128113,
        -0.944724977016449,
        0.8166589736938477
      ],
      "type": "VEC3"
    },
    {
      "bufferView": 2,
      "byteOffset": 266280,
      "componentType": 5126,
      "count": 12,
      "max": [
        0.9232927560806274,
        0.9816279411315918,
        0.38409698009490967
      ],
      "min": [
        0.0,
        -0.9816279411315918,
        0.19080543518066406
      ],
      "type": "VEC3"
    },
    {
      "bufferView": 1,
      "byteOffset": 88712,
      "componentType": 5126,
      "count": 12,
      "max": [
        0.7083330154418945,
        0.9090279936790466
      ],
      "min": [
        0.625,
        0.34097200632095337
      ],
      "type": "VEC2"
    },
    {
      "bufferView": 0,
      "byteOffset": 72708,
      "componentType": 5125,
      "count": 18,
      "type": "SCALAR"
    },
    {
      "bufferView": 2,
      "byteOffset": 266424,
      "componentType": 5126,
      "count": 24,
      "max": [
        0.8215870261192322,
        1.1221929788589478,
        2.51623797416687
      ],
      "min": [
        -2.23022198677063,
        -1.1221979856491089,
        0.7793610095977783
      ],
      "type": "VEC3"
    },
    {
      "bufferView": 2,
      "byteOffset": 266712,
      "componentType": 5126,
      "count": 24,
      "max": [
        0.5839780569076538,
        1.0,
        0.8117695450782776
      ],
      "min": [
        -0.9848158359527588,
        -1.0,
        0.0
      ],
      "type": "VEC3"
    },
    {
      "bufferView": 1,
      "byteOffset": 88808,
      "componentType": 5126,
      "count": 24,
      "max": [
        0.625,
        1.0
      ],
      "min": [
        0.375,
        0.0
      ],
      "type": "VEC2"
    },
    {
      "bufferView": 0,
      "byteOffset": 72780,
      "componentType": 5125,
      "count": 36,
      "type": "SCALAR"
    },
    {
      "bufferView": 2,
      "byteOffset": 267000,
      "componentType": 5126,
      "count": 228,
      "max": [
        2.5629940032958984,
        0.8434029817581177,
        2.2428441047668457
      ],
      "min": [
        0.3452630043029785,
        -0.8434029817581177,
        0.24489299952983856
      ],
      "type": "VEC3"
    },
    {
      "bufferView": 2,
      "byteOffset": 269736,
      "componentType": 5126,
      "count": 228,
      "max": [
        1.0,
        0.79378741979599,
        0.79378741979599
      ],
      "min": [
        0.5697909593582153,
        -0.79378741979599,
        -0.79378741979599
      ],
      "type": "VEC3"
    },
    {
      "bufferView": 1,
      "byteOffset": 89000,
      "componentType": 5126,
      "count": 228,
      "max": [
        1.0,
        1.0
      ],
      "min": [
        0.0,
        0.009999999776482582
      ],
      "type": "VEC2"
    },
    {
      "bufferView": 0,
      "byteOffset": 72924,
      "componentType": 5125,
      "count": 612,
      "type": "SCALAR"
    },
    {
      "bufferView": 2,
      "byteOffset": 272472,
      "componentType": 5126,
      "count": 8228,
      "max": [
        1.7448049783706665,
        1.581367015838623,
        1.9660810232162476
      ],
      "min": [
        -3.182356119155884,
        -1.581362009048462,
        -0.09589199721813202
      ],
      "type": "VEC3"
    },
    {
      "bufferView": 2,
      "byteOffset": 371208,
      "componentType": 5126,
      "count": 8228,
      "max": [
        1.0,
        1.0,
        0.9999808073043823
      ],
      "min": [
        -1.0,
        -1.0,
        -0.9999808073043823
      ],
      "type": "VEC3"
    },
    {
      "bufferView": 1,
      "byteOffset": 90824,
      "componentType": 5126,
      "count": 8228,
      "max": [
        5.599998950958252,
        1.0
      ],
      "min": [
        0.0,
        -0.8660249710083008
      ],
      "type": "VEC2"
    },
    {
      "bufferView": 0,
      "byteOffset": 75372,
      "componentType": 5125,
      "count": 13764,
      "type": "SCALAR"
    },
    {
      "bufferView": 2,
      "byteOffset": 469944,
      "componentType": 5126,
      "count": 80,
      "max": [
        -2.518234968185425,
        0.8477349877357483,
        0.5105040073394775
      ],
      "min": [
        -2.539752960205078,
        -0.8477349877357483,
        0.4394960105419159
      ],
      "type": "VEC3"
    },
    {
      "bufferView": 2,
      "byteOffset": 470904,
      "componentType": 5126,
      "count": 80,
      "max": [
        -0.4651239514350891,
        0.8178814053535461,
        0.8852456212043762
      ],
      "min": [
        -1.0,
        -0.8178814053535461,
        -0.8852456212043762
      ],
      "type": "VEC3"
    },
    {
      "bufferView": 1,
      "byteOffset": 156648,
      "componentType": 5126,
      "count": 80,
      "max": [
        0.875,
        1.0
      ],
      "min": [
        0.125,
        0.0
      ],
      "type": "VEC2"
    },
    {
      "bufferView": 0,
      "byteOffset": 130428,
      "componentType": 5125,
      "count": 132,
      "type": "SCALAR"
    },
    {
      "bufferView": 2,
      "byteOffset": 471864,
      "componentType": 5126,
      "count": 341,
      "max": [
        2.5,
        1.0,
        2.0
      ],
      "min": [
        -2.5,
        -1.0001850128173828,
        0.07500000298023224
      ],
      "type": "VEC3"
    },
    {
      "bufferView": 2,
      "byteOffset": 475956,
      "componentType": 5126,
      "count": 341,
      "max": [
        1.0,
        1.0,
        1.0
      ],
      "min": [
        -1.0,
        -1.0,
        -1.0
      ],
      "type": "VEC3"
    },
    {
      "bufferView": 1,
      "byteOffset": 157288,
      "componentType": 5126,
      "count": 341,
      "max": [
        0.875,
        1.0
      ],
      "min": [
        0.375,
        0.0
      ],
      "type": "VEC2"
    },
    {
      "bufferView": 0,
      "byteOffset": 130956,
      "componentType": 5125,
      "count": 537,
      "type": "SCALAR"
    }
  ],
  "asset": {
    "extras": {
      "author": "Ivan Norman (https://sketchfab.com/vanidza)",
      "license": "CC-BY-NC-4.0 (http://creativecommons.org/licenses/by-nc/4.0/)",
      "source": "https://sketchfab.com/3d-models/low-poly-truck-drifter-e56ee981a9504153b98e707d6e9c757c",
      "title": "Low-poly truck (Drifter)"
    },
    "generator": "Sketchfab-12.66.0",
    "version": "2.0"
  },
  "bufferViews": [
    {
      "buffer": 0,
      "byteLength": 133104,
      "name": "floatBufferViews",
      "target": 34963
    },
    {
      "buffer": 0,
      "byteLength": 160016,
      "byteOffset": 133104,
      "byteStride": 8,
      "name": "floatBufferViews",
      "target": 34962
    },
    {
      "buffer": 0,
      "byteLength": 480048,
      "byteOffset": 293120,
      "byteStride": 12,
      "name": "floatBufferViews",
      "target": 34962
    }
  ],
  "buffers": [
    {
      "byteLength": 773168,
      "uri": "scene.bin"
    }
  ],
  "materials": [
    {
      "doubleSided": true,
      "name": "Black",
      "pbrMetallicRoughness": {
        "baseColorFactor": [
          0.06812398106835842,
          0.10115198163665756,
          0.1138788422272192,
          1.0
        ],
        "metallicFactor": 0.0
      }
    },
    {
      "doubleSided": true,
      "name": "Brown",
      "pbrMetallicRoughness": {
        "baseColorFactor": [
          0.37626212299090633,
          0.23421189781994575,
          0.17464740365558498,
          1.0
        ],
        "metallicFactor": 0.0
      }
    },
    {
      "doubleSided": true,
      "name": "Dark_brown",
      "pbrMetallicRoughness": {
        "baseColorFactor": [
          0.23944218220440913,
          0.14962486814036244,
          0.11160970042178275,
          1.0
        ],
        "metallicFactor": 0.0
      }
    },
    {
      "doubleSided": true,
      "name": "Dark_brown_handle",
      "pbrMetallicRoughness": {
        "baseColorFactor": [
          0.16814380844179178,
          0.10623115355868122,
          0.07954836093544079,
          1.0
        ],
        "metallicFactor": 0.0
      }
    },
    {
      "doubleSided": true,
      "name": "Glass",
      "pbrMetallicRoughness": {
        "baseColorFactor": [
          0.6281055094861525,
          0.6123186393349515,
          0.5441579397318103,
          1.0
        ],
        "metallicFactor": 0.0,
        "roughnessFactor": 0.0
      }
    },
    {
      "doubleSided": true,
      "name": "Glass_trailer",
      "pbrMetallicRoughness": {
        "baseColorFactor": [
          0.5399202322377528,
          0.5271757190630896,
          0.47796283649842675,
          1.0
        ],
        "metallicFactor": 0.0,
        "roughnessFactor": 0.0
      }
    },
    {
      "doubleSided": true,
      "emissiveFactor": [
        1.0,
        1.0,
        1.0
      ],
      "name": "Light",
      "pbrMetallicRoughness": {
        "metallicFactor": 0.0
      }
    },
    {
      "doubleSided": true,
      "name": "Light_black",
      "pbrMetallicRoughness": {
        "baseColorFactor": [
          0.14126329114027164,
          0.18782077230067773,
          0.20507873639031693,
          1.0
        ],
        "metallicFactor": 0.0
      }
    },
    {
      "doubleSided": true,
      "emissiveFactor": [
        0.08767357520686733,
        0.016812211988086877,
        0.016812211988086877
      ],
      "name": "Light_red",
      "pbrMetallicRoughness": {
        "baseColorFactor": [
          0.3052835848314484,
          0.1354154262083721,
          0.1354154262083721,
          1.0
        ],
        "metallicFactor": 0.0
      }
    },
    {
      "doubleSided": true,
      "name": "Orange",
      "pbrMetallicRoughness": {
        "baseColorFactor": [
          0.979986380953846,
          0.2465961273369585,
          0.11178330439105834,
          1.0
        ],
        "metallicFactor": 0.0
      }
    }
  ],
  "meshes": [
    {
      "name": "Object_0",
      "primitives": [
        {
          "attributes": {
            "NORMAL": 1,
            "POSITION": 0,
            "TEXCOORD_0": 2
          },
          "indices": 3,
          "material": 0,
          "mode": 4
        }
      ]
    },
    {
      "name": "Object_1",
      "primitives": [
        {
          "attributes": {
            "NORMAL": 5,
            "POSITION": 4,
            "TEXCOORD_0": 6
          },
          "indices": 7,
          "material": 0,
          "mode": 4
        }
      ]
    },
    {
      "name": "Object_2",
      "primitives": [
        {
          "attributes": {
            "NORMAL": 9,
            "POSITION": 8,
            "TEXCOORD_0": 10
          },
          "indices": 11,
          "material": 1,
          "mode": 4
        }
      ]
    },
    {
      "name": "Object_3",
      "primitives": [
        {
          "attributes": {
            "NORMAL": 13,
            "POSITION": 12,
            "TEXCOORD_0": 14
          },
          "indices": 15,
          "material": 2,
          "mode": 4
        }
      ]
    },
    {
      "name": "Object_4",
      "primitives": [
        {
          "attributes": {
            "NORMAL": 17,
            "POSITION": 16,
            "TEXCOORD_0": 18
          },
          "indices": 19,
          "material": 3,
          "mode": 4
        }
      ]
    },
    {
      "name": "Object_5",
      "primitives": [
        {
          "attributes": {
            "NORMAL": 21,
            "POSITION": 20,
            "TEXCOORD_0": 22
          },
          "indices": 23,
          "material": 4,
          "mode": 4
        }
      ]
    },
    {
      "name": "Object_6",
      "primitives": [
        {
          "attributes": {
            "NORMAL": 25,
            "POSITION": 24,
            "TEXCOORD_0": 26
          },
          "indices": 27,
          "material": 5,
          "mode": 4
        }
      ]
    },
    {
      "name": "Object_7",
      "primitives": [
        {
          "attributes": {
            "NORMAL": 29,
            "POSITION": 28,
            "TEXCOORD_0": 30
          },
          "indices": 31,
          "material": 6,
          "mode": 4
        }
      ]
    },
    {
      "name": "Object_8",
      "primitives": [
        {
          "attributes": {
            "NORMAL": 33,
            "POSITION": 32,
            "TEXCOORD_0": 34
          },
          "indices": 35,
          "material": 7,
          "mode": 4
        }
      ]
    },
    {
      "name": "Object_9",
      "primitives": [
        {
          "attributes": {
            "NORMAL": 37,
            "POSITION": 36,
            "TEXCOORD_0": 38
          },
          "indices": 39,
          "material": 8,
          "mode": 4
        }
      ]
    },
    {
      "name": "Object_10",
      "primitives": [
        {
          "attributes": {
            "NORMAL": 41,
            "POSITION": 40,
            "TEXCOORD_0": 42
          },
          "indices": 43,
          "material": 9,
          "mode": 4
        }
      ]
    }
  ],
  "nodes": [
    {
      "children": [
        1
      ],
      "matrix": [
        1.0,
        0.0,
        0.0,
        0.0,
        0.0,
        2.220446049250313e-16,
        -1.0,
        0.0,
        0.0,
        1.0,
        2.220446049250313e-16,
        0.0,
        0.0,
        0.0,
        0.0,
        1.0
      ],
      "name": "Sketchfab_model"
    },
    {
      "children": [
        2,
        3,
        4,
        5,
        6,
        7,
        8,
        9,
        10,
        11,
        12
      ],
      "name": "Car.obj.cleaner.materialmerger.gles"
    },
    {
      "mesh": 0,
      "name": "Object_2"
    },
    {
      "mesh": 1,
      "name": "Object_3"
    },
    {
      "mesh": 2,
      "name": "Object_4"
    },
    {
      "mesh": 3,
      "name": "Object_5"
    },
    {
      "mesh": 4,
      "name": "Object_6"
    },
    {
      "mesh": 5,
      "name": "Object_7"
    },
    {
      "mesh": 6,
      "name": "Object_8"
    },
    {
      "mesh": 7,
      "name": "Object_9"
    },
    {
      "mesh": 8,
      "name": "Object_10"
    },
    {
      "mesh": 9,
      "name": "Object_11"
    },
    {
      "mesh": 10,
      "name": "Object_12"
    }
  ],
  "scene": 0,
  "scenes": [
    {
      "name": "Sketchfab_Scene",
      "nodes": [
        0
      ]
    }
  ]
}
